<?xml version="1.0" encoding="utf-8"?>
<!-- Generator: Adobe Illustrator 22.1.0, SVG Export Plug-In . SVG Version: 6.00 Build 0)  -->
<svg version="1.1" id="Layer_1" xmlns="http://www.w3.org/2000/svg" xmlns:xlink="http://www.w3.org/1999/xlink" x="0px" y="0px"
	 viewBox="0 0 24 21" style="enable-background:new 0 0 24 21;" xml:space="preserve">
<style type="text/css">
	.st0{fill:#FFFFFF;}
	.st1{fill:#FEDD00;}
</style>
<g>
	<path class="st0" d="M1.1,3.7c-0.3,0-0.6,0.3-0.6,0.6c0,0.3,0.3,0.6,0.6,0.6h2.4L5.6,15c0.1,0.4,0.3,0.7,0.6,0.7h10.4
		c0.3,0,0.6-0.3,0.6-0.6s-0.3-0.6-0.6-0.6H6.8l-0.3-1.2h11c0.3,0,0.5-0.2,0.6-0.5l1.5-6.2c0.1-0.4-0.2-0.8-0.6-0.8h-14L4.6,4.1
		C4.5,3.9,4.3,3.7,4,3.7H1.1z M5.2,7h3.2l0.3,1.9H5.6L5.2,7z M9.7,7h3.9l-0.3,1.9H10L9.7,7z M14.9,7h3.2l-0.4,1.9h-3.1L14.9,7z
		 M5.8,10.1h3.1l0.3,1.9h-3L5.8,10.1z M10.2,10.1h2.9l-0.3,1.9h-2.3L10.2,10.1z M14.3,10.1h3L17,11.9H14L14.3,10.1z M8.5,16.5
		c-1.1,0-2.1,0.9-2.1,2.1c0,1.1,0.9,2.1,2.1,2.1s2.1-0.9,2.1-2.1S9.7,16.5,8.5,16.5z M14.3,16.5c-1.1,0-2.1,0.9-2.1,2.1
		c0,1.1,0.9,2.1,2.1,2.1s2.1-0.9,2.1-2.1S15.5,16.5,14.3,16.5z M8.5,17.8c0.5,0,0.8,0.4,0.8,0.8c0,0.5-0.4,0.8-0.8,0.8
		c-0.5,0-0.8-0.4-0.8-0.8C7.7,18.1,8.1,17.8,8.5,17.8z M14.3,17.8c0.5,0,0.8,0.4,0.8,0.8c0,0.5-0.4,0.8-0.8,0.8
		c-0.5,0-0.8-0.4-0.8-0.8C13.5,18.1,13.9,17.8,14.3,17.8z"/>
	<circle class="st1" cx="19.4" cy="4.7" r="4.1"/>
</g>
</svg>
