<?xml version="1.0" encoding="utf-8"?>
<!-- Generator: Adobe Illustrator 22.1.0, SVG Export Plug-In . SVG Version: 6.00 Build 0)  -->
<svg version="1.1" id="Layer_1" xmlns="http://www.w3.org/2000/svg" xmlns:xlink="http://www.w3.org/1999/xlink" x="0px" y="0px"
	 viewBox="0 0 20 17" style="enable-background:new 0 0 20 17;" xml:space="preserve">
<style type="text/css">
	.st0{fill:#FFFFFF;}
</style>
<path class="st0" d="M0.6,0C0.3,0,0,0.3,0,0.6C0,1,0.3,1.2,0.6,1.2H3l2.1,10.1C5.2,11.7,5.5,12,5.8,12h10.4c0.3,0,0.6-0.3,0.6-0.6
	s-0.3-0.6-0.6-0.6H6.3L6,9.5h11c0.3,0,0.5-0.2,0.6-0.5l1.5-6.2c0.1-0.4-0.2-0.8-0.6-0.8h-14L4.1,0.5C4.1,0.2,3.8,0,3.5,0H0.6z
	 M4.7,3.3H8l0.3,1.9H5.1L4.7,3.3z M9.2,3.3h3.9l-0.3,1.9H9.5L9.2,3.3z M14.4,3.3h3.2l-0.4,1.9h-3.1L14.4,3.3z M5.4,6.4h3.1l0.3,1.9
	h-3L5.4,6.4z M9.8,6.4h2.9l-0.3,1.9h-2.3L9.8,6.4z M13.9,6.4h3l-0.4,1.9h-2.9L13.9,6.4z M8.1,12.9c-1.1,0-2.1,0.9-2.1,2.1
	C6,16.1,6.9,17,8.1,17s2.1-0.9,2.1-2.1S9.2,12.9,8.1,12.9z M13.9,12.9c-1.1,0-2.1,0.9-2.1,2.1c0,1.1,0.9,2.1,2.1,2.1
	s2.1-0.9,2.1-2.1S15,12.9,13.9,12.9z M8.1,14.1c0.5,0,0.8,0.4,0.8,0.8c0,0.5-0.4,0.8-0.8,0.8c-0.5,0-0.8-0.4-0.8-0.8
	C7.3,14.5,7.6,14.1,8.1,14.1z M13.9,14.1c0.5,0,0.8,0.4,0.8,0.8c0,0.5-0.4,0.8-0.8,0.8c-0.5,0-0.8-0.4-0.8-0.8
	C13.1,14.5,13.4,14.1,13.9,14.1z"/>
</svg>
