<svg width="16" height="20" viewBox="0 0 16 20" fill="none" xmlns="http://www.w3.org/2000/svg">
<path d="M13.1765 3.47873L12.6571 17.4991C12.6483 17.7397 12.4363 17.9435 12.1947 17.9435H3.22298C2.98164 17.9435 2.76945 17.7389 2.76065 17.4991L2.24122 3.47873C2.22694 3.09189 1.90171 2.78993 1.51486 2.8042C1.12803 2.81867 0.826061 3.1437 0.840329 3.53055L1.35956 17.5509C1.39652 18.5442 2.2275 19.3453 3.22296 19.3453H12.1947C13.1898 19.3453 14.0211 18.5456 14.0581 17.5509L14.5774 3.53055C14.5916 3.14371 14.2897 2.81867 13.9028 2.8042C13.516 2.78992 13.1907 3.09188 13.1765 3.47873H13.1765Z" fill="#7D7D7D"/>
<path d="M7.15039 6.30873V15.8412C7.15039 16.151 7.40131 16.4019 7.71108 16.4019C8.02085 16.4019 8.27176 16.151 8.27176 15.8412V6.30873C8.27176 5.99895 8.02085 5.74805 7.71108 5.74805C7.40131 5.74805 7.15039 5.99896 7.15039 6.30873Z" fill="#7D7D7D"/>
<path d="M4.0647 6.32521L4.34514 15.8577C4.35433 16.1673 4.61248 16.411 4.92205 16.4018C5.23164 16.3928 5.47533 16.1344 5.46611 15.8249L5.18567 6.29236C5.17667 5.98278 4.91832 5.73909 4.60876 5.7483C4.29917 5.7573 4.05568 6.01564 4.0647 6.32521Z" fill="#7D7D7D"/>
<path d="M10.2338 6.29236L9.95338 15.8249C9.94419 16.1345 10.1879 16.3928 10.4974 16.4018C10.807 16.411 11.0652 16.1673 11.0743 15.8577L11.3548 6.32521C11.3638 6.01562 11.1203 5.75726 10.8107 5.7483C10.5011 5.73911 10.2428 5.98279 10.2338 6.29236Z" fill="#7D7D7D"/>
<path d="M0.70092 3.78465H14.7193C15.1063 3.78465 15.4202 3.47096 15.4202 3.08373C15.4202 2.6967 15.1063 2.38281 14.7193 2.38281H0.70092C0.313887 2.38281 0 2.6967 0 3.08373C0 3.47096 0.313887 3.78465 0.70092 3.78465Z" fill="#7D7D7D"/>
<path d="M5.58029 2.85606L5.87208 1.83442C5.93466 1.61578 6.21824 1.40182 6.44608 1.40182H8.974C9.20184 1.40182 9.48542 1.61558 9.548 1.83442L9.83979 2.85606L11.1877 2.47079L10.8959 1.44935C10.6612 0.628525 9.82767 0 8.974 0H6.44608C5.59241 0 4.75872 0.628775 4.52421 1.44935L4.23242 2.47079L5.58029 2.85606Z" fill="#7D7D7D"/>
</svg>
