<svg width="93" height="93" viewBox="0 0 93 93" fill="none" xmlns="http://www.w3.org/2000/svg">
<g clip-path="url(#clip0_925_4985)">
<path d="M83.315 71.5035C83.1955 70.8525 82.7438 70.2015 81.9865 70.2015H79.9936V29.7465C79.9936 27.1823 77.9078 25.0965 75.3436 25.0965H68.0763C66.9338 20.3668 64.2235 16.1951 60.3175 13.2058C55.9332 9.85777 50.5259 8.38305 45.092 9.04734C44.4942 9.16691 44.0026 9.76476 44.0026 10.3759V10.3892C44.1222 10.9871 44.72 11.4786 45.3312 11.4786C49.091 11.0269 52.7845 11.6646 56.0262 13.3519C59.0553 14.9196 61.6062 17.3376 63.3998 20.3269C67.2659 26.7306 67.04 34.5028 62.8152 40.6142L60.9286 39.2723C60.623 39.0731 60.2245 38.9003 59.7329 39.1395C59.3609 39.2723 59.0022 39.6178 59.0022 40.1093L57.6338 48.0011C57.5009 48.4926 57.7799 48.9842 58.112 49.2101C58.3645 49.3828 58.6302 49.4625 58.8959 49.4625C59.0819 49.4625 59.2679 49.4226 59.4406 49.3296L66.4289 45.4369C66.8009 45.1978 67.0268 44.8258 67.0268 44.4671C67.0268 44.1083 66.9072 43.6301 66.5485 43.3776L64.7682 42.0491C66.3226 39.7639 67.412 37.3592 68.0232 34.8615C68.0232 34.8482 68.156 34.3301 68.2889 33.4798H72.2879V64.4753H20.819V33.3602H26.7445C27.608 38.7808 30.4778 43.6035 34.8355 46.9382C38.5289 49.7681 42.953 51.2561 47.5233 51.2561C48.3736 51.2561 49.2239 51.2029 50.0742 51.0966C50.672 50.9771 51.1636 50.3792 51.1636 49.7681V49.7548C51.044 49.1569 50.4462 48.6653 49.835 48.6653H49.8218C46.0619 49.1171 42.3685 48.4661 39.1268 46.7921C36.0976 45.2243 33.5467 42.8063 31.7399 39.8038C27.887 33.4001 28.1129 25.6412 32.3245 19.5298L34.211 20.8583C34.5166 21.0576 34.9152 21.2303 35.4067 20.9912C35.7787 20.8583 36.1375 20.5129 36.1375 20.0213L37.5059 12.1296C37.6387 11.6381 37.3598 11.1465 37.0276 10.9206C36.5892 10.6416 36.1242 10.5885 35.699 10.8011L28.7108 14.6938C28.3387 14.9329 28.1129 15.3049 28.1129 15.6636C28.1129 16.0223 28.2325 16.5006 28.5912 16.7531L30.3715 18.0816C28.8436 20.3402 27.7542 22.7316 27.1297 25.2028H17.6437C17.192 25.2028 15.6376 25.2958 14.3622 26.5579C13.4986 27.4215 13.007 28.6172 13.007 29.8395V70.2945H11.0142C10.2967 70.2945 9.80518 70.7861 9.80518 71.5035V75.0641C9.80518 78.8903 12.914 81.9992 16.7403 81.9992H76.3799C80.2062 81.9992 83.315 78.8903 83.315 75.0641V71.5035ZM31.5273 16.0356L34.7425 14.3218L34.0915 17.8425L31.5273 16.0356ZM63.6389 44.1216L60.4105 45.8355L61.0615 42.3015L63.6389 44.1216ZM12.2232 72.6461H36.722L37.0542 73.4033L37.6255 74.7718C37.8779 75.2501 38.2366 75.5025 38.7149 75.5025H54.1662C54.6179 75.5025 55.136 75.2766 55.2689 74.7718L56.1723 72.6328H80.6712V75.0508H80.7908C80.7376 77.4953 78.7182 79.4749 76.2736 79.4749H16.7403C14.2559 79.4749 12.2232 77.4422 12.2232 74.9578V72.6461ZM26.7312 27.5145C26.585 28.6836 26.5186 29.8395 26.5452 30.9422H19.6233C18.9059 30.9422 18.4143 31.4338 18.4143 32.1512V65.5781C18.4143 66.2955 18.9059 66.7871 19.6233 66.7871H73.3109C74.0283 66.7871 74.5199 66.2955 74.5199 65.5781V32.1512C74.5199 31.4338 74.0283 30.9422 73.3109 30.9422H68.5945C68.6609 29.8926 68.6609 28.7235 68.528 27.5278L75.3569 27.5145C76.5792 27.5145 77.5756 28.5109 77.5756 29.7332V70.1882H55.4283C54.9766 70.1882 54.4585 70.4141 54.3256 70.9189L53.4222 73.0579H39.5519L38.6485 70.8126C38.4093 70.3343 38.0373 70.0819 37.559 70.0819H15.4383V29.7465C15.4383 28.5242 16.4347 27.5278 17.657 27.5278H26.0005C26.0536 27.5145 26.1997 27.5145 26.7312 27.5145Z" fill="#232323"/>
<path d="M35.5528 25.0696C35.5528 25.4416 35.792 25.6807 36.0311 25.9066L37.9443 27.5008V27.5274L35.4864 27.8596C35.1144 27.8596 34.8753 28.0987 34.6361 28.3246C34.397 28.5637 34.397 28.9357 34.397 29.1748L34.9683 34.5423C34.9683 34.9143 35.2074 35.1534 35.4333 35.3926C35.6724 35.6317 36.0444 35.6317 36.2835 35.6317L38.7281 35.2996V35.3128L37.1338 37.226C36.8947 37.4651 36.8947 37.8371 36.8947 38.0763C36.8947 38.3287 37.1338 38.6874 37.373 38.9266L41.6111 42.248C41.8768 42.4606 42.2621 42.5403 42.6208 42.4738C42.9264 42.4207 43.1655 42.248 43.3117 42.0088L44.8927 40.0957H44.9193L45.2514 42.5668C45.3843 43.2045 45.8758 43.6563 46.4604 43.6563H46.5933L51.9607 43.085C52.3327 43.085 52.5718 42.8458 52.811 42.62C53.0501 42.3808 53.0501 42.0088 53.0501 41.7697L52.7313 39.4181L54.5381 40.9194C54.8038 41.132 55.1891 41.2117 55.5478 41.1453C55.8534 41.0921 56.0926 40.9194 56.2387 40.6803L59.5601 36.4421C59.7993 36.203 59.7993 35.831 59.7993 35.5918C59.7993 35.2198 59.5601 34.9807 59.321 34.7416L57.4344 32.948V32.9214C58.4308 32.8018 59.0553 32.7354 59.4804 32.6956C60.2244 32.6158 60.2643 32.6158 60.5034 32.4697C60.9551 32.1774 60.9817 31.5663 60.9817 31.367C60.5831 27.8861 60.3838 26.1324 60.3971 26.0394C60.4104 26.0261 60.4104 26.0128 60.4104 25.9863V25.9464C60.4104 25.7604 60.4104 25.4947 60.1713 25.2954C59.7196 24.9101 58.5637 24.8836 56.6373 25.2157V25.2024L58.2316 23.276C58.4441 23.0103 58.5238 22.625 58.4574 22.2663C58.4043 21.9607 58.2316 21.7216 57.9924 21.5754L53.7543 18.254C53.4886 18.0414 53.1033 17.9617 52.7446 18.0281C52.439 18.0813 52.1998 18.254 52.0537 18.4931L50.4594 20.4063H50.4328L50.1007 17.9351C49.9811 17.3373 49.3833 16.8457 48.7721 16.8457L43.4047 17.417C43.0327 17.417 42.7935 17.6561 42.5544 17.882L42.5411 17.8953V17.9218C42.5411 18.0281 42.5145 18.1743 42.488 18.3071C42.4614 18.4533 42.4215 18.5994 42.4215 18.7323L42.7404 21.0838L40.9203 19.5958C40.6545 19.3833 40.2693 19.3036 39.9105 19.37C39.605 19.4231 39.3658 19.5958 39.2197 19.835L35.7787 24.1794C35.5528 24.4584 35.4465 24.6976 35.5528 25.0696ZM40.0434 28.6168C40.1098 28.391 40.163 28.1651 40.2161 27.926C40.2693 27.7001 40.3224 27.4743 40.3888 27.2484C40.5084 26.7967 40.4021 26.1723 40.0168 25.9198L38.3561 24.5913L40.2161 22.3991L41.8768 23.7277C42.2488 24.0997 42.86 24.0997 43.3383 23.7277C43.5907 23.5284 43.8165 23.4088 44.0291 23.3026C44.1885 23.2228 44.3347 23.1431 44.4676 23.0501C44.9193 22.8243 45.3178 22.3327 45.1983 21.8411L44.9857 19.7287L47.9484 19.3966L48.1743 21.5223C48.2806 21.9341 48.5994 22.4656 49.1441 22.6117C49.2504 22.6383 49.3567 22.6648 49.463 22.6914C49.7818 22.7844 50.0741 22.8641 50.5126 22.9438C51.0041 23.183 51.6153 22.9438 51.8544 22.5718L53.183 20.9111L55.4814 22.7711L54.1528 24.4318C53.7808 24.8038 53.7808 25.415 54.1396 25.88C54.3787 26.2653 54.5116 26.531 54.6178 26.7568C54.764 27.0624 54.857 27.2484 55.0696 27.3813C55.2954 27.6071 55.6541 27.74 56.0394 27.74L58.1518 27.5274C58.2847 29.0021 58.3777 29.879 58.484 30.4901L56.3716 30.716C55.9597 30.8223 55.4283 31.1411 55.2821 31.6858V31.6991C55.2821 31.9117 55.1626 32.483 54.95 32.9347C54.7108 33.4263 54.95 34.0374 55.3087 34.2766L56.9694 35.6051L55.1094 37.9168L53.4487 36.5883C53.0767 36.2163 52.4655 36.2163 52.0005 36.575C51.8411 36.6813 51.6684 36.7743 51.4957 36.8806C51.2831 37.0001 51.0573 37.133 50.8713 37.2658C50.4328 37.4917 50.1405 37.9567 50.1405 38.4748L50.3531 40.5873L47.3904 40.9194L47.1645 38.7937C47.0583 38.3818 46.7394 37.8504 46.1947 37.7043C46.0884 37.6777 45.9821 37.6511 45.8758 37.6246C45.557 37.5316 45.2514 37.4518 44.8263 37.3588H44.813C44.7731 37.3588 44.72 37.3323 44.6668 37.3057C44.6004 37.2791 44.534 37.2393 44.4676 37.2393C44.1753 37.2393 43.7634 37.319 43.4977 37.7176L42.1691 39.3783L39.8707 37.5183L41.1993 35.8576C41.5713 35.4856 41.5713 34.8744 41.2125 34.4094C41 33.971 40.7741 33.6388 40.5217 33.2668C40.2958 32.8151 39.8043 32.4166 39.3127 32.5361L37.2003 32.7487L36.8681 29.786L38.9938 29.5601C39.3658 29.4804 39.8973 29.1616 40.0434 28.6168Z" fill="#FEDD00"/>
<path d="M47.7625 36.2301C49.3834 36.2301 50.9245 35.5924 52.0937 34.4233C53.2628 33.2541 53.9005 31.713 53.9005 30.0921C53.9005 28.4712 53.2628 26.9301 52.0937 25.761C50.9245 24.5918 49.3834 23.9541 47.7625 23.9541C46.1417 23.9541 44.6005 24.5918 43.4314 25.761C42.2622 26.9301 41.6245 28.4712 41.6245 30.0921C41.6245 31.713 42.2622 33.2541 43.4314 34.4233C44.6005 35.5924 46.1417 36.2301 47.7625 36.2301ZM47.7625 26.4917C49.7687 26.4917 51.4692 28.1922 51.4692 30.1984C51.4692 32.2045 49.7687 33.9051 47.7625 33.9051C45.7564 33.9051 44.0558 32.2045 44.0558 30.1984C44.0558 28.1922 45.7564 26.4917 47.7625 26.4917Z" fill="#FEDD00"/>
</g>
<defs>
<clipPath id="clip0_925_4985">
<rect width="93" height="93" fill="white"/>
</clipPath>
</defs>
</svg>
