<svg width="270" height="215" viewBox="0 0 270 215" fill="none" xmlns="http://www.w3.org/2000/svg">
<path d="M228.8 27.9004H5.2002V69.2004H228.8V27.9004Z" fill="#232323"/>
<path d="M50.5 81.5996H25.5V106.6H50.5V81.5996Z" fill="#232323"/>
<path d="M50.5 124.3H25.5V149.3H50.5V124.3Z" fill="#232323"/>
<path d="M50.5 166.9H25.5V191.9H50.5V166.9Z" fill="#232323"/>
<path d="M90 81.5996H65V106.6H90V81.5996Z" fill="#232323"/>
<path d="M90 124.3H65V149.3H90V124.3Z" fill="#232323"/>
<path d="M90 166.9H65V191.9H90V166.9Z" fill="#232323"/>
<path d="M129.5 166.9H104.5V191.9H129.5V166.9Z" fill="white"/>
<path d="M168.9 81.5996H143.9V106.6H168.9V81.5996Z" fill="#232323"/>
<path d="M168.9 124.3H143.9V149.3H168.9V124.3Z" fill="#232323"/>
<path d="M168.9 166.9H143.9V191.9H168.9V166.9Z" fill="#232323"/>
<path d="M208.4 81.5996H183.4V106.6H208.4V81.5996Z" fill="#232323"/>
<path d="M129.5 81.5996H104.5V149.2H129.5V81.5996Z" fill="white"/>
<path d="M266.7 196.9L244.1 176.5L257.2 162C259 160 259.7 157.1 258.8 154.5C258 151.9 255.8 149.9 253.2 149.3L198.5 136.6C195.8 136 192.9 136.9 191 138.9C189.1 141 188.5 143.9 189.4 146.6L207.5 199.7C208.4 202.3 210.6 204.2 213.2 204.8C213.8 204.9 214.5 205 215.1 204.9C217.1 204.8 219 203.9 220.4 202.4L233.5 187.9L256.1 208.3C257.7 209.7 259.7 210.4 261.7 210.3C263.7 210.2 265.6 209.3 267 207.8C270.1 204.6 269.8 199.8 266.7 196.9Z" fill="#232323"/>
<path d="M220.8 22.7002H13.2C5.9 22.7002 0 28.6002 0 35.9002V201.7C0 209 5.9 214.9 13.2 214.9H85.1H183.4H186.8C189.6 214.9 192 212.6 192 209.7C192 206.8 189.7 204.5 186.8 204.5H183.4H13.2C11.6 204.5 10.4 203.2 10.4 201.7V35.9002C10.4 34.3002 11.7 33.1002 13.2 33.1002H220.8C222.4 33.1002 223.6 34.4002 223.6 35.9002V74.3002V117.1V117.7C223.6 120.6 225.9 122.9 228.8 122.9C231.7 122.9 234 120.6 234 117.7V117.1V74.3002V35.9002C234 28.6002 228.1 22.7002 220.8 22.7002Z" fill="#232323"/>
<path d="M183.4 42.8998C183.4 49.7998 189 55.3998 195.9 55.3998C202.8 55.3998 208.4 49.7998 208.4 42.8998C208.4 35.9998 202.8 30.3998 195.9 30.3998C189 30.2998 183.4 35.8998 183.4 42.8998Z" fill="white"/>
<path d="M25.5 42.5C25.5 49.4 31.1 55 38 55C44.9 55 50.5 49.4 50.5 42.5C50.5 35.6 45 30 38 30C31.1 30 25.5 35.5 25.5 42.5Z" fill="white"/>
<path d="M46.1998 37.6C46.1998 41.8 42.4998 45.1 37.9998 45.1C33.4998 45.1 29.7998 41.7 29.7998 37.6V7.5C29.8998 3.4 33.4998 0 37.9998 0C42.4998 0 46.1998 3.4 46.1998 7.5V37.6Z" fill="#232323"/>
<path d="M204.1 38.0004C204.1 42.2004 200.4 45.5004 195.9 45.5004C191.4 45.5004 187.7 42.1004 187.7 38.0004V7.90039C187.7 3.70039 191.4 0.400391 195.9 0.400391C200.4 0.400391 204.1 3.80039 204.1 7.90039V38.0004Z" fill="#232323"/>
</svg>
