<svg width="12" height="12" viewBox="0 0 12 12" fill="none" xmlns="http://www.w3.org/2000/svg">
<circle cx="6" cy="6" r="6" fill="#594FA1"/>
<path d="M5.48879 7.16124C5.48879 6.82366 5.52978 6.55481 5.61176 6.35467C5.69375 6.15454 5.84324 5.95802 6.06026 5.76512C6.27968 5.56981 6.42556 5.41187 6.4979 5.2913C6.57024 5.16833 6.60641 5.03933 6.60641 4.9043C6.60641 4.49679 6.41833 4.29304 6.04217 4.29304C5.86374 4.29304 5.72027 4.3485 5.61176 4.45942C5.50567 4.56793 5.45021 4.71863 5.44538 4.91153H4.39648C4.40131 4.45098 4.5496 4.09049 4.84136 3.83008C5.13554 3.56966 5.53581 3.43945 6.04217 3.43945C6.55336 3.43945 6.95001 3.56363 7.23213 3.81199C7.51425 4.05794 7.65531 4.40637 7.65531 4.85728C7.65531 5.06223 7.6095 5.25634 7.51787 5.4396C7.42624 5.62044 7.26589 5.82178 7.03682 6.04362L6.74385 6.32212C6.56059 6.49814 6.4557 6.70431 6.42918 6.94061L6.41471 7.16124H5.48879ZM5.3839 8.27163C5.3839 8.11007 5.43815 7.97745 5.54666 7.87377C5.65758 7.76767 5.79864 7.71463 5.96983 7.71463C6.14103 7.71463 6.28089 7.76767 6.3894 7.87377C6.50031 7.97745 6.55577 8.11007 6.55577 8.27163C6.55577 8.43077 6.50152 8.56219 6.39301 8.66587C6.28692 8.76955 6.14586 8.8214 5.96983 8.8214C5.79381 8.8214 5.65155 8.76955 5.54304 8.66587C5.43695 8.56219 5.3839 8.43077 5.3839 8.27163Z" fill="white"/>
</svg>
