<svg width="20" height="17" viewBox="0 0 20 17" fill="none" xmlns="http://www.w3.org/2000/svg">
<path d="M0.621946 2.91482e-07C0.278445 2.91482e-07 0 0.278456 0 0.621946C0 0.965437 0.278445 1.24389 0.621946 1.24389H3.01903L5.15697 11.3311C5.24155 11.7108 5.49041 12.0268 5.80483 12.0243H16.1706C16.4992 12.0288 16.8014 11.7309 16.8014 11.4023C16.8014 11.0737 16.4992 10.7757 16.1706 10.7804H6.31016L6.04453 9.53649H16.9999C17.2783 9.53442 17.5414 9.32232 17.6024 9.05061L19.0536 2.83115C19.1344 2.4702 18.821 2.0758 18.4511 2.07315H4.47024L4.13335 0.492374C4.07449 0.216209 3.80672 -0.00028995 3.52436 2.91482e-07H0.621946ZM4.72938 3.31705H7.96868L8.27966 5.18288H5.12459L4.72938 3.31705ZM9.23849 3.31705H13.1516L12.8406 5.18288H9.54946L9.23849 3.31705ZM14.4214 3.31705H17.6672L17.2331 5.18288H14.1104L14.4214 3.31705ZM5.3902 6.42677H8.48697L8.79794 8.2926H5.78538L5.3902 6.42677ZM9.75678 6.42677H12.6333L12.3223 8.2926H10.0677L9.75678 6.42677ZM13.9031 6.42677H16.9416L16.5075 8.2926H13.5921L13.9031 6.42677ZM8.0853 12.8535C6.9477 12.8535 6.01214 13.789 6.01214 14.9267C6.01214 16.0643 6.9477 16.9998 8.0853 16.9998C9.2229 16.9998 10.1585 16.0643 10.1585 14.9267C10.1585 13.7891 9.2229 12.8535 8.0853 12.8535ZM13.8901 12.8535C12.7525 12.8535 11.817 13.789 11.817 14.9267C11.817 16.0643 12.7525 16.9998 13.8901 16.9998C15.0277 16.9998 15.9633 16.0643 15.9633 14.9267C15.9633 13.7891 15.0277 12.8535 13.8901 12.8535ZM8.0853 14.0974C8.55066 14.0974 8.91456 14.4613 8.91456 14.9267C8.91456 15.392 8.55066 15.7559 8.0853 15.7559C7.61998 15.7559 7.25604 15.392 7.25604 14.9267C7.25604 14.4613 7.61998 14.0974 8.0853 14.0974ZM13.8901 14.0974C14.3555 14.0974 14.7194 14.4613 14.7194 14.9267C14.7194 15.392 14.3555 15.7559 13.8901 15.7559C13.4248 15.7559 13.0609 15.392 13.0609 14.9267C13.0609 14.4613 13.4248 14.0974 13.8901 14.0974Z" fill="white"/>
</svg>
