<svg width="27" height="24" viewBox="0 0 27 24" fill="none" xmlns="http://www.w3.org/2000/svg">
<path d="M0.878044 4.11505e-07C0.3931 4.11505e-07 0 0.393115 0 0.878044C0 1.36297 0.3931 1.75609 0.878044 1.75609H4.26217L7.28045 15.9968C7.39986 16.5329 7.7512 16.9791 8.19508 16.9755H22.8291C23.293 16.9819 23.7197 16.5614 23.7197 16.0975C23.7197 15.6335 23.293 15.2129 22.8291 15.2194H8.90849L8.53348 13.4633H23.9999C24.393 13.4604 24.7644 13.161 24.8505 12.7774L26.8992 3.99693C27.0134 3.48735 26.5708 2.93056 26.0486 2.92681H6.31094L5.83533 0.695119C5.75224 0.305238 5.37422 -0.000409342 4.97558 4.11505e-07H0.878044ZM6.67679 4.6829H11.2499L11.689 7.31703H7.23473L6.67679 4.6829ZM13.0426 4.6829H18.567L18.128 7.31703H13.4816L13.0426 4.6829ZM20.3596 4.6829H24.942L24.3291 7.31703H19.9206L20.3596 4.6829ZM7.60972 9.07312H11.9816L12.4207 11.7072H8.16762L7.60972 9.07312ZM13.7743 9.07312H17.8353L17.3962 11.7072H14.2133L13.7743 9.07312ZM19.6279 9.07312H23.9176L23.3048 11.7072H19.1889L19.6279 9.07312ZM11.4146 18.1462C9.80854 18.1462 8.48776 19.4669 8.48776 21.073C8.48776 22.679 9.80854 23.9998 11.4146 23.9998C13.0206 23.9998 14.3414 22.679 14.3414 21.073C14.3414 19.467 13.0206 18.1462 11.4146 18.1462ZM19.6097 18.1462C18.0036 18.1462 16.6828 19.4669 16.6828 21.073C16.6828 22.679 18.0036 23.9998 19.6097 23.9998C21.2157 23.9998 22.5365 22.679 22.5365 21.073C22.5365 19.467 21.2157 18.1462 19.6097 18.1462ZM11.4146 19.9023C12.0716 19.9023 12.5853 20.416 12.5853 21.073C12.5853 21.73 12.0716 22.2437 11.4146 22.2437C10.7577 22.2437 10.2438 21.73 10.2438 21.073C10.2438 20.416 10.7577 19.9023 11.4146 19.9023ZM19.6097 19.9023C20.2666 19.9023 20.7804 20.416 20.7804 21.073C20.7804 21.73 20.2666 22.2437 19.6097 22.2437C18.9527 22.2437 18.4389 21.73 18.4389 21.073C18.4389 20.416 18.9527 19.9023 19.6097 19.9023Z" fill="#232323"/>
</svg>
